<?xml version="1.0" encoding="UTF-8"?>
<svg version="1.1" xmlns="http://www.w3.org/2000/svg" width="1000" height="800">
<path d="M0 0 C329.67 0 659.34 0 999 0 C999 264 999 528 999 800 C991.18911733 796.09455867 983.69461398 792.17698971 976.25 787.6875 C974.31708443 786.53531984 972.38348696 785.38428291 970.44921875 784.234375 C969.5164209 783.67943359 968.58362305 783.12449219 967.62255859 782.55273438 C877.7085053 729.31745426 787.55410247 722.59585239 592.00891113 742.48449707 C584.80654936 744.33268166 577.62987952 746.28039398 570.44891357 748.20962524 C561.29938061 750.66279089 552.14878157 752.99029289 542.875 754.9375 C541.99537598 755.1245752 541.11575195 755.31165039 540.20947266 755.50439453 C526.70495053 758.22870103 513.25738992 759.44524116 499.5 759.4375 C498.3733342 759.43810425 498.3733342 759.43810425 497.22390747 759.4387207 C480.8333085 759.38889668 465.07648226 757.07975504 449 754 C447.25803425 753.66977329 445.51600656 753.33987323 443.77392578 753.01025391 C428.62994198 750.13864206 428.62994198 750.13864206 421.71264648 748.76757812 C405.99046146 745.66739735 390.61438812 743.57945425 374.5625 743.625 C373.82976868 743.62554382 373.09703735 743.62608765 372.34210205 743.62664795 C358.60624822 743.67306666 345.43959653 745.05776322 332 748 C331.04077637 748.20898926 330.08155273 748.41797852 329.09326172 748.63330078 C308.07739778 753.34150322 287.53537031 760.01303719 266.99414062 766.43286133 C261.00068919 768.30359121 255.00224166 770.15767862 249 772 C247.8641748 772.34949707 246.72834961 772.69899414 245.55810547 773.05908203 C206.51643376 784.96469289 166.13706882 792.21931572 125.25 792.25 C124.42941101 792.25067474 123.60882202 792.25134949 122.7633667 792.25204468 C83.74192561 792.20178716 45.74968919 785.58793862 7.62533569 777.76846313 C6.79386615 777.59802144 5.9623966 777.42757975 5.10573101 777.25197315 C3.07046619 776.83475194 1.03523016 776.41739025 -1 776 C-1.01227628 729.15794313 -0.98928167 682.31608066 -0.91910917 635.47407625 C-0.90629339 626.90224351 -0.89415151 618.33040983 -0.88200372 609.75857612 C-0.85970315 594.03425581 -0.83693106 578.30993623 -0.81384277 562.58561707 C-0.78262625 541.32445341 -0.75210154 520.06328885 -0.72167969 498.80212402 C-0.64837335 447.80558184 -0.57413136 396.809041 -0.5 345.8125 C-0.335 231.694375 -0.17 117.57625 0 0 Z " fill="#F5EEBC" transform="translate(1,0)"/>
</svg>
