<svg width="32" height="30" viewBox="0 0 32 30" fill="none" xmlns="http://www.w3.org/2000/svg">
<path d="M24.2227 29.9722C23.8504 29.9722 23.48 29.858 23.1612 29.6304L15.6651 24.2545L8.169 29.6304C7.85842 29.8538 7.48519 29.9734 7.10259 29.9721C6.72 29.9707 6.3476 29.8486 6.03858 29.623C5.72927 29.3987 5.49856 29.0826 5.37928 28.7196C5.26 28.3567 5.25823 27.9653 5.3742 27.6013L8.16992 18.5783L0.7411 13.3435C0.433222 13.1163 0.204575 12.7981 0.087499 12.4338C-0.029577 12.0695 -0.029155 11.6776 0.0887054 11.3135C0.207495 10.9504 0.43741 10.6338 0.745955 10.4084C1.0545 10.183 1.42607 10.0603 1.80815 10.0576L11.0089 10.0438L13.9383 1.24475C14.0592 0.882267 14.291 0.567005 14.601 0.343608C14.911 0.120211 15.2834 0 15.6655 0C16.0476 0 16.4201 0.120211 16.7301 0.343608C17.0401 0.567005 17.2719 0.882267 17.3928 1.24475L20.2724 10.0438L29.5202 10.0576C29.9027 10.0598 30.2748 10.1824 30.5837 10.4081C30.8925 10.6338 31.1224 10.9511 31.2407 11.3149C31.3589 11.6787 31.3595 12.0706 31.2424 12.4347C31.1252 12.7989 30.8963 13.1169 30.5881 13.3435L23.1593 18.5783L25.955 27.6013C26.0713 27.9652 26.0697 28.3565 25.9506 28.7195C25.8314 29.0825 25.6008 29.3987 25.2916 29.623C24.9816 29.8503 24.6071 29.9727 24.2227 29.9722Z" fill="#CEC9C1"/>
</svg>
