<svg width="32" height="30" viewBox="0 0 32 30" fill="none" xmlns="http://www.w3.org/2000/svg">
<path d="M24.6895 29.9722C24.3172 29.9722 23.9468 29.858 23.628 29.6304L16.1319 24.2545L8.63579 29.6304C8.32522 29.8538 7.95199 29.9734 7.56939 29.9721C7.18679 29.9707 6.8144 29.8486 6.50538 29.623C6.19606 29.3987 5.96536 29.0826 5.84608 28.7196C5.7268 28.3567 5.72502 27.9653 5.841 27.6013L8.63671 18.5783L1.2079 13.3435C0.900019 13.1163 0.671372 12.7981 0.554296 12.4338C0.43722 12.0695 0.437642 11.6776 0.555502 11.3135C0.674292 10.9504 0.904207 10.6338 1.21275 10.4084C1.5213 10.183 1.89287 10.0603 2.27495 10.0576L11.4757 10.0438L14.4051 1.24475C14.526 0.882267 14.7578 0.567005 15.0678 0.343608C15.3778 0.120211 15.7502 0 16.1323 0C16.5144 0 16.8869 0.120211 17.1969 0.343608C17.5069 0.567005 17.7387 0.882267 17.8596 1.24475L20.7392 10.0438L29.987 10.0576C30.3695 10.0598 30.7416 10.1824 31.0505 10.4081C31.3593 10.6338 31.5892 10.9511 31.7075 11.3149C31.8257 11.6787 31.8263 12.0706 31.7092 12.4347C31.592 12.7989 31.3631 13.1169 31.0549 13.3435L23.6261 18.5783L26.4218 27.6013C26.5381 27.9652 26.5365 28.3565 26.4174 28.7195C26.2982 29.0825 26.0676 29.3987 25.7584 29.623C25.4484 29.8503 25.0739 29.9727 24.6895 29.9722Z" fill="#FFAC33"/>
</svg>
