<svg width="1440" height="142" viewBox="0 0 1440 142" fill="none" xmlns="http://www.w3.org/2000/svg">
<path d="M0 106.2L30 112.063C60 118.369 120 129.431 180 129.763C240 129.431 300 118.369 360 100.337C420 82.9688 480 58.6313 540 58.9631C600 58.6313 660 82.9688 720 82.6369C780 82.9688 840 58.6313 900 47.2369C960 35.4 1020 35.4 1080 35.4C1140 35.4 1200 35.4 1260 53.1C1320 70.8 1380 106.2 1410 123.9L1440 141.6V0H1410C1380 0 1320 0 1260 0C1200 0 1140 0 1080 0C1020 0 960 0 900 0C840 0 780 0 720 0C660 0 600 0 540 0C480 0 420 0 360 0C300 0 240 0 180 0C120 0 60 0 30 0H0V106.2Z" fill="#F6EFBD"/>
</svg>
